<svg height="195" width="188" xmlns="http://www.w3.org/2000/svg"><path d="m178.496 97.543c8.138 7.333 11.678 19.035 8.072 30.133-3.607 11.1-13.347 18.474-24.235 19.602 2.282 10.725-1.723 22.277-11.155 29.132-9.431 6.853-21.638 7.087-31.108 1.592-4.448 10.017-14.467 17.004-26.12 16.999s-21.665-7.005-26.101-17.029c-9.479 5.486-21.685 5.241-31.108-1.624-9.292-6.769-13.032-18.698-10.945-29.289h29.352l4.542-23.935h88.365l14.314-75.443c10.615 1.367 20.707 8.864 24.228 19.739 3.595 11.101.045 22.8-8.101 30.123zm-113.574-.145 4.544-23.945h58.405l-4.542 23.945zm-39.126 49.661c-10.68-1.315-20.854-8.553-24.392-19.479-3.596-11.102-.045-22.802 8.102-30.126-8.139-7.333-11.678-19.035-8.071-30.132 3.606-11.098 13.345-18.473 24.234-19.603-2.281-10.722 1.724-22.274 11.153-29.128 9.432-6.856 21.639-7.089 31.11-1.591 4.449-10.02 14.468-17.006 26.119-17 11.653.006 21.665 7.004 26.102 17.025 9.477-5.486 21.683-5.241 31.108 1.625 9.221 6.719 13.09 18.506 11.108 29.031h-117.716z" fill="#312f28" fill-rule="evenodd"/></svg>