<svg id="Playdate-sdk.svg" xmlns="http://www.w3.org/2000/svg" width="64" height="64" viewBox="0 0 64 64">
  <defs>
    <style>
      .cls-1 {
        fill: #ffc833;
      }

      .cls-2 {
        fill: #322f27;
        fill-rule: evenodd;
      }
    </style>
  </defs>
  <rect id="Rounded_Rectangle_1" data-name="Rounded Rectangle 1" class="cls-1" width="64" height="64" rx="8" ry="8"/>
  <path class="cls-2" d="M627,806.571H601.053a0.29,0.29,0,0,0-.132.153c-0.093.622,3.91,5.035,8.276,5.924a10.631,10.631,0,0,0,2.7.234l-1.016,4.75c-0.463-.029-0.941-0.078-1.437-0.152-5.153-.769-9.964-5.739-12.156-8.914V834h-4.571V808.631c-2.194,3.091-7,7.9-12.155,8.672-0.5.073-.974,0.122-1.437,0.152l-1.017-4.747a10.628,10.628,0,0,0,2.7-.234c4.334-.881,8.308-5.23,8.277-5.9H563V802H577.09a10.784,10.784,0,0,1-1.03-.9c-5.086-5.085-4.362-10.176-.775-13.762s8.679-4.309,13.765.776a16.347,16.347,0,0,1,3.665,6.618V770h4.571v24.7a16.314,16.314,0,0,1,3.665-6.614c5.085-5.082,10.177-4.359,13.764-.775s4.311,8.672-.775,13.755a10.994,10.994,0,0,1-1.074.934H627v4.571ZM586.58,791.844c-2.918-3.246-5.821-3.779-8.161-1.44-2.443,2.442-1.878,5.324,1.44,8.16,3.549,3.033,9.562,3.481,10.026,3.018S589.76,795.382,586.58,791.844Zm25-1.466c-2.34-2.338-5.243-1.805-8.161,1.44-3.18,3.535-3.78,9.257-3.3,9.732s6.477,0.015,10.026-3.016C613.459,795.7,614.024,792.819,611.581,790.378Z" transform="translate(-563 -770)"/>
</svg>
